<svg 
 xmlns="http://www.w3.org/2000/svg"
 xmlns:xlink="http://www.w3.org/1999/xlink"
 width="400px" height="400px">
<path fill-rule="evenodd"  fill="rgb(255, 255, 255)"
 d="M200.000,400.000 C89.543,400.000 0.000,310.457 0.000,200.000 C0.000,89.543 89.543,0.000 200.000,0.000 C310.457,0.000 400.000,89.543 400.000,200.000 C400.000,310.457 310.457,400.000 200.000,400.000 ZM205.819,82.164 C203.348,77.731 199.940,74.348 195.598,72.015 C191.253,69.685 186.760,68.519 182.120,68.519 C177.627,68.519 173.169,69.685 168.754,72.015 C164.335,74.348 160.927,77.731 158.533,82.164 C156.135,86.601 154.939,91.225 154.939,96.035 C154.939,100.697 156.135,105.208 158.533,109.568 C160.927,113.930 164.296,117.310 168.641,119.717 C172.983,122.120 177.476,123.326 182.120,123.326 C186.911,123.326 191.477,122.120 195.823,119.717 C200.164,117.310 203.534,113.930 205.931,109.568 C208.325,105.208 209.525,100.697 209.525,96.035 C209.525,91.225 208.290,86.601 205.819,82.164 ZM273.688,82.164 C271.217,77.731 267.809,74.348 263.467,72.015 C259.122,69.685 254.629,68.519 249.989,68.519 C245.496,68.519 241.038,69.685 236.623,72.015 C232.204,74.348 228.796,77.731 226.402,82.164 C224.004,86.601 222.808,91.225 222.808,96.035 C222.808,100.697 224.004,105.208 226.402,109.568 C228.796,113.930 232.165,117.310 236.510,119.717 C240.852,122.120 245.345,123.326 249.989,123.326 C254.780,123.326 259.346,122.120 263.691,119.717 C268.033,117.310 271.403,113.930 273.800,109.568 C276.194,105.208 277.394,100.697 277.394,96.035 C277.394,91.225 276.159,86.601 273.688,82.164 ZM324.448,168.399 C322.992,166.548 321.420,164.754 319.778,163.066 C307.400,150.338 290.856,140.427 273.265,140.141 C273.208,140.138 273.174,140.137 142.129,138.628 C118.786,138.362 99.586,159.983 99.329,183.454 L99.271,188.845 C99.165,198.543 102.405,210.819 108.393,218.433 C116.380,228.586 128.316,234.492 141.140,234.639 L272.042,236.141 C280.597,236.238 287.633,229.319 287.728,220.717 C287.766,217.157 286.579,210.918 284.385,208.129 C281.463,204.414 277.089,199.509 272.382,199.454 C272.382,199.454 268.448,202.151 261.943,202.076 C230.929,201.721 141.480,200.696 141.480,200.696 C138.057,200.657 134.869,199.078 132.735,196.365 C131.113,194.303 130.271,191.826 130.300,189.201 L130.360,183.807 C130.393,180.777 131.601,177.939 133.763,175.813 C135.925,173.688 138.775,172.536 141.787,172.572 L272.540,174.069 C283.331,174.197 293.376,179.173 300.101,187.720 C305.142,194.129 307.870,202.153 307.780,210.317 L307.668,220.604 C307.562,230.179 303.756,239.137 296.951,245.828 C290.145,252.520 281.153,256.146 271.633,256.036 L80.094,253.808 C69.298,253.684 59.248,254.192 52.521,245.640 L44.394,259.483 C56.973,275.474 59.555,293.004 79.754,293.235 L271.294,295.461 C289.101,295.667 305.921,288.887 318.652,276.369 C331.382,263.852 338.501,238.869 338.697,220.961 L338.810,210.673 C338.979,195.400 333.877,180.387 324.448,168.399 Z"/>
</svg>